<?xml version="1.0" standalone="no"?>
<!DOCTYPE svg PUBLIC "-//W3C//DTD SVG 20010904//EN"
 "http://www.w3.org/TR/2001/REC-SVG-20010904/DTD/svg10.dtd">
<svg version="1.0" xmlns="http://www.w3.org/2000/svg"
 width="599.000000pt" height="474.000000pt" viewBox="0 0 599.000000 474.000000"
 preserveAspectRatio="xMidYMid meet">
<metadata>
Created by potrace 1.14, written by Peter Selinger 2001-2017
</metadata>
<g transform="translate(0.000000,474.000000) scale(0.100000,-0.100000)"
fill="#000000" stroke="none">
<path d="M2775 4268 l-120 -61 120 -59 119 -60 118 58 c65 32 118 61 118 64 0
5 -226 121 -233 119 -1 0 -56 -27 -122 -61z"/>
<path d="M2630 3695 l0 -475 70 -35 70 -35 0 -420 c0 -231 2 -420 5 -420 3 0
28 11 55 25 l50 25 0 845 0 845 -120 60 c-66 33 -122 60 -125 60 -3 0 -5 -214
-5 -475z"/>
<path d="M3033 4112 l-113 -57 0 -850 0 -851 45 -22 c25 -12 48 -22 50 -22 3
0 5 124 5 275 l0 275 70 31 70 32 0 623 c0 343 -3 624 -7 623 -5 0 -59 -26
-120 -57z"/>
<path d="M3707 3893 c-4 -3 -7 -163 -7 -355 l0 -348 135 0 c110 0 146 4 192
20 146 51 225 220 195 420 -17 120 -69 202 -149 235 -63 27 -346 48 -366 28z
m285 -151 c14 -8 37 -34 50 -56 20 -36 23 -54 23 -141 0 -154 -40 -214 -150
-223 l-55 -4 0 226 0 227 53 -7 c28 -4 64 -14 79 -22z"/>
<path d="M4430 3896 c0 -3 -126 -476 -180 -673 l-8 -33 78 0 78 0 17 70 17 70
98 0 98 0 6 -32 c3 -18 11 -49 17 -70 l10 -38 79 0 c57 0 80 4 80 13 0 6 -41
164 -90 351 -50 186 -90 340 -90 342 0 2 -47 4 -105 4 -58 0 -105 -2 -105 -4z
m136 -304 l30 -137 -64 -3 c-35 -2 -66 -2 -67 0 -6 5 60 287 65 282 3 -3 19
-67 36 -142z"/>
<path d="M4890 3545 l0 -355 75 0 75 0 0 114 0 113 78 5 c92 5 148 32 186 87
56 80 59 212 7 293 -47 73 -127 98 -318 98 l-103 0 0 -355z m269 206 c43 -33
45 -141 3 -184 -13 -13 -38 -22 -71 -25 l-51 -5 0 117 0 116 48 0 c30 0 56 -7
71 -19z"/>
<path d="M2342 3192 l-113 -57 121 -60 120 -59 120 59 121 60 -113 57 c-62 31
-120 57 -128 57 -8 0 -66 -26 -128 -57z"/>
<path d="M2200 2910 l0 -190 70 -35 70 -35 0 -140 0 -140 55 27 55 27 0 278 0
278 -120 60 c-66 33 -122 60 -125 60 -3 0 -5 -85 -5 -190z"/>
<path d="M2608 3039 l-118 -59 0 -279 0 -278 118 -55 117 -55 3 199 c1 110 1
286 0 393 l-3 193 -117 -59z"/>
<path d="M1912 2692 l-113 -57 121 -60 120 -59 120 59 121 60 -113 57 c-62 31
-120 57 -128 57 -8 0 -66 -26 -128 -57z"/>
<path d="M1770 2267 l0 -333 70 -34 70 -34 0 -208 0 -208 55 27 55 27 0 488 0
488 -120 60 c-66 33 -122 60 -125 60 -3 0 -5 -150 -5 -333z"/>
<path d="M2178 2539 l-118 -59 0 -488 0 -488 45 -22 c25 -12 48 -22 50 -22 3
0 5 187 5 415 l0 415 70 31 70 32 0 123 c0 68 -1 124 -2 123 -2 0 -56 -27
-120 -60z"/>
<path d="M1485 1908 l-120 -61 120 -60 121 -59 119 60 120 60 -120 60 -120 60
-120 -60z"/>
<path d="M1340 1550 l0 -260 120 -60 c66 -33 122 -60 125 -60 3 0 5 117 5 260
l0 260 -120 60 c-66 33 -122 60 -125 60 -3 0 -5 -117 -5 -260z"/>
<path d="M1748 1749 l-118 -59 0 -260 c0 -143 2 -260 5 -260 2 0 25 10 50 22
l45 22 0 73 0 73 75 37 75 37 0 188 c0 103 -3 188 -7 187 -5 0 -61 -27 -125
-60z"/>
</g>
</svg>
